HIERARCHY
ROOT Hips
{
    OFFSET   0.000000   0.000000   0.000000
    CHANNELS 6 Xposition Yposition Zposition Zrotation Xrotation Yrotation
    JOINT Chest
    {
        OFFSET   0.000000   8.007230   0.000000
        CHANNELS 3 Zrotation Xrotation Yrotation
        JOINT Chest2
        {
            OFFSET   0.000000  22.077100   0.000000
            CHANNELS 3 Zrotation Xrotation Yrotation
            JOINT Neck
            {
                OFFSET   0.000000  23.254800  -0.000021
                CHANNELS 3 Zrotation Xrotation Yrotation
                JOINT Head
                {
                    OFFSET   0.000000  14.370000   1.956610
                    CHANNELS 3 Zrotation Xrotation Yrotation
                    End Site
                    {
                        OFFSET   0.000000  19.566000   0.000000
                    }
                }
            }
            JOINT LeftCollar
            {
                OFFSET   3.911900  19.017000  -0.467063
                CHANNELS 3 Zrotation Xrotation Yrotation
                JOINT LeftShoulder
                {
                    OFFSET  10.383700   0.000000   0.000000
                    CHANNELS 3 Zrotation Xrotation Yrotation
                    JOINT LeftElbow
                    {
                        OFFSET  26.662100   0.001529   0.000325
                        CHANNELS 3 Zrotation Xrotation Yrotation
                        JOINT LeftWrist
                        {
                            OFFSET  28.869000  -0.000011  -0.000096
                            CHANNELS 3 Zrotation Xrotation Yrotation
                            JOINT LeftFinger0
                            {
                                OFFSET   2.044650  -2.323460   3.252850
                                CHANNELS 3 Zrotation Xrotation Yrotation
                                JOINT LeftFinger01
                                {
                                    OFFSET   3.088130   0.000000   0.000000
                                    CHANNELS 3 Zrotation Xrotation Yrotation
                                    JOINT LeftFinger02
                                    {
                                        OFFSET   2.639460   0.000000   0.000000
                                        CHANNELS 3 Zrotation Xrotation Yrotation
                                        End Site
                                        {
                                            OFFSET   2.582190   0.000000   0.000000
                                        }
                                    }
                                }
                            }
                            JOINT LeftFinger1
                            {
                                OFFSET   8.364480   0.000000   3.252850
                                CHANNELS 3 Zrotation Xrotation Yrotation
                                JOINT LeftFinger11
                                {
                                    OFFSET   4.646930   0.000000   0.000000
                                    CHANNELS 3 Zrotation Xrotation Yrotation
                                    JOINT LeftFinger12
                                    {
                                        OFFSET   2.323460   0.000000   0.000000
                                        CHANNELS 3 Zrotation Xrotation Yrotation
                                        End Site
                                        {
                                            OFFSET   2.273050   0.000000   0.000000
                                        }
                                    }
                                }
                            }
                            JOINT LeftFinger2
                            {
                                OFFSET   8.364480   0.000016   1.078090
                                CHANNELS 3 Zrotation Xrotation Yrotation
                                JOINT LeftFinger21
                                {
                                    OFFSET   5.111620   0.000000   0.000000
                                    CHANNELS 3 Zrotation Xrotation Yrotation
                                    JOINT LeftFinger22
                                    {
                                        OFFSET   2.788160   0.000017   0.000000
                                        CHANNELS 3 Zrotation Xrotation Yrotation
                                        End Site
                                        {
                                            OFFSET   2.727660   0.000000   0.000000
                                        }
                                    }
                                }
                            }
                            JOINT LeftFinger3
                            {
                                OFFSET   7.899780   0.000015  -1.078090
                                CHANNELS 3 Zrotation Xrotation Yrotation
                                JOINT LeftFinger31
                                {
                                    OFFSET   4.646920   0.000000   0.000000
                                    CHANNELS 3 Zrotation Xrotation Yrotation
                                    JOINT LeftFinger32
                                    {
                                        OFFSET   2.323470   0.000000   0.000000
                                        CHANNELS 3 Zrotation Xrotation Yrotation
                                        End Site
                                        {
                                            OFFSET   2.273050   0.000000   0.000000
                                        }
                                    }
                                }
                            }
                            JOINT LeftFinger4
                            {
                                OFFSET   7.435090   0.000000  -3.252850
                                CHANNELS 3 Zrotation Xrotation Yrotation
                                JOINT LeftFinger41
                                {
                                    OFFSET   3.717550   0.000000   0.000000
                                    CHANNELS 3 Zrotation Xrotation Yrotation
                                    JOINT LeftFinger42
                                    {
                                        OFFSET   1.858760   0.000000   0.000000
                                        CHANNELS 3 Zrotation Xrotation Yrotation
                                        End Site
                                        {
                                            OFFSET   1.818440   0.000000   0.000000
                                        }
                                    }
                                }
                            }
                        }
                    }
                }
            }
            JOINT RightCollar
            {
                OFFSET  -3.911900  19.017000  -0.467062
                CHANNELS 3 Zrotation Xrotation Yrotation
                JOINT RightShoulder
                {
                    OFFSET -10.383700   0.000015   0.000000
                    CHANNELS 3 Zrotation Xrotation Yrotation
                    JOINT RightElbow
                    {
                        OFFSET -26.662100   0.001341   0.000385
                        CHANNELS 3 Zrotation Xrotation Yrotation
                        JOINT RightWrist
                        {
                            OFFSET -28.869000   0.000025  -0.000080
                            CHANNELS 3 Zrotation Xrotation Yrotation
                            JOINT RightFinger0
                            {
                                OFFSET  -2.044650  -2.323490   3.252850
                                CHANNELS 3 Zrotation Xrotation Yrotation
                                JOINT RightFinger01
                                {
                                    OFFSET  -3.088130   0.000000   0.000000
                                    CHANNELS 3 Zrotation Xrotation Yrotation
                                    JOINT RightFinger02
                                    {
                                        OFFSET  -2.639460   0.000000   0.000000
                                        CHANNELS 3 Zrotation Xrotation Yrotation
                                        End Site
                                        {
                                            OFFSET  -2.582190   0.000000   0.000000
                                        }
                                    }
                                }
                            }
                            JOINT RightFinger1
                            {
                                OFFSET  -8.364480   0.000000   3.252850
                                CHANNELS 3 Zrotation Xrotation Yrotation
                                JOINT RightFinger11
                                {
                                    OFFSET  -4.646930   0.000000   0.000000
                                    CHANNELS 3 Zrotation Xrotation Yrotation
                                    JOINT RightFinger12
                                    {
                                        OFFSET  -2.323470   0.000000   0.000000
                                        CHANNELS 3 Zrotation Xrotation Yrotation
                                        End Site
                                        {
                                            OFFSET  -2.273050   0.000000   0.000000
                                        }
                                    }
                                }
                            }
                            JOINT RightFinger2
                            {
                                OFFSET  -8.364480   0.000000   1.078090
                                CHANNELS 3 Zrotation Xrotation Yrotation
                                JOINT RightFinger21
                                {
                                    OFFSET  -5.111610   0.000000   0.000000
                                    CHANNELS 3 Zrotation Xrotation Yrotation
                                    JOINT RightFinger22
                                    {
                                        OFFSET  -2.788160   0.000000   0.000000
                                        CHANNELS 3 Zrotation Xrotation Yrotation
                                        End Site
                                        {
                                            OFFSET  -2.727660   0.000000   0.000000
                                        }
                                    }
                                }
                            }
                            JOINT RightFinger3
                            {
                                OFFSET  -7.899780   0.000000  -1.078090
                                CHANNELS 3 Zrotation Xrotation Yrotation
                                JOINT RightFinger31
                                {
                                    OFFSET  -4.646920   0.000000   0.000000
                                    CHANNELS 3 Zrotation Xrotation Yrotation
                                    JOINT RightFinger32
                                    {
                                        OFFSET  -2.323470   0.000000   0.000000
                                        CHANNELS 3 Zrotation Xrotation Yrotation
                                        End Site
                                        {
                                            OFFSET  -2.273050   0.000000   0.000000
                                        }
                                    }
                                }
                            }
                            JOINT RightFinger4
                            {
                                OFFSET  -7.435090   0.000000  -3.252850
                                CHANNELS 3 Zrotation Xrotation Yrotation
                                JOINT RightFinger41
                                {
                                    OFFSET  -3.717550   0.000000   0.000000
                                    CHANNELS 3 Zrotation Xrotation Yrotation
                                    JOINT RightFinger42
                                    {
                                        OFFSET  -1.858770   0.000000   0.000000
                                        CHANNELS 3 Zrotation Xrotation Yrotation
                                        End Site
                                        {
                                            OFFSET  -1.818440   0.000000   0.000000
                                        }
                                    }
                                }
                            }
                        }
                    }
                }
            }
        }
    }
    JOINT LeftHip
    {
        OFFSET   9.783010   0.000000   0.000000
        CHANNELS 3 Zrotation Xrotation Yrotation
        JOINT LeftKnee
        {
            OFFSET   0.000070 -41.789100   0.000028
            CHANNELS 3 Zrotation Xrotation Yrotation
            JOINT LeftAnkle
            {
                OFFSET   0.000087 -41.133200  -0.000100
                CHANNELS 3 Zrotation Xrotation Yrotation
                JOINT LeftToe
                {
                    OFFSET   0.000000  -6.358960  14.674500
                    CHANNELS 3 Zrotation Xrotation Yrotation
                    End Site
                    {
                        OFFSET   0.000000   0.000000   3.913200
                    }
                }
            }
        }
    }
    JOINT RightHip
    {
        OFFSET  -9.783020   0.000000   0.000000
        CHANNELS 3 Zrotation Xrotation Yrotation
        JOINT RightKnee
        {
            OFFSET   0.000044 -41.789100  -0.000870
            CHANNELS 3 Zrotation Xrotation Yrotation
            JOINT RightAnkle
            {
                OFFSET  -0.000090 -41.133200  -0.000245
                CHANNELS 3 Zrotation Xrotation Yrotation
                JOINT RightToe
                {
                    OFFSET   0.000000  -6.358960  14.674500
                    CHANNELS 3 Zrotation Xrotation Yrotation
                    End Site
                    {
                        OFFSET   0.000000   0.000000   3.913200
                    }
                }
            }
        }
    }
}
MOTION
Frames: 6
Frame Time:   0.016667
  0.595943  89.419400  -0.520346  -1.054380 -13.099000  -1.031670   0.075921  10.063200   0.728625   0.019740  20.126600   1.479660   0.888370  -3.018680   0.047236   1.469820  -6.118360  10.496700  -6.938360  -0.838331   5.954370 -71.349100  11.086500  -5.821660   0.970797   6.471480 -22.305900   7.573520  -6.786530  -1.187500  41.459200  33.719600 -54.359600 -30.274000   0.001410   0.000873 -10.137000   0.000000   0.001204 -34.153200  -1.111610   1.638430 -27.956700   0.022696   0.015539 -19.569600   0.012150   0.015086 -30.022000  -3.735810   6.439520 -45.346700   0.209062  -0.274422 -30.201600   0.260415  -0.002249 -28.166300  -3.936930   7.308160 -35.289100   0.063377  -0.246787 -23.502500   0.179429  -0.102249 -32.418500  -4.473400   6.999200 -49.038900   0.010309  -0.000355 -32.659900   0.010195   0.003343   3.106780  -1.305820   7.724930  45.375700 -14.295700  53.413200 -10.106200 -12.178500  78.146700  23.022100 -32.639600   8.346100 -48.710600  22.065200  37.164000 -21.551600   0.000167   0.000135 -15.045000   0.000405   0.000085  88.995600   5.006120   0.095677  94.119100   0.000583   0.001831  70.589500   0.004096  -0.002286  89.000000   0.003466  -0.003542 110.000000  -0.001230  -0.002805  79.994400  -0.000399   0.001180  88.996200  -4.997820  -0.087485 110.000000  -0.004909  -0.004130  80.000000  -0.004272   0.003728  88.984600  -9.997720  -0.176303 110.000000  -0.001886  -0.002146  80.000000  -0.002225   0.002055   1.477850  16.196200   0.832165  -0.123579   1.118880  10.381500  -2.592930  -4.101930  -3.359700  -0.000000   0.000000   0.000000  -0.329537  15.141700  -5.035370  -0.123809   4.011750 -12.118200   1.663140  -5.256380  -2.484150   0.000000   0.000000  -0.000000
  0.606560  89.414500  -0.501942  -1.091530 -13.009200  -1.075990   0.114810  10.019100   0.703402   0.104884  20.038900   1.419460   0.775278  -3.047300   0.041246   1.283780  -6.176010  10.672200  -6.985590  -0.862013   5.947900 -71.540700  10.641200  -5.570360   1.049390   6.552560 -22.646400   7.591480  -7.307920  -1.164230  41.438400  33.641100 -54.344200 -30.245400   0.001404   0.000867 -10.122700   0.000000   0.001207 -34.273500  -1.141430   1.674080 -28.055800   0.032413   0.035014 -19.639000   0.014662   0.030233 -30.136000  -3.735820   6.407520 -45.514800   0.366806  -0.421502 -30.314700   0.419396   0.020811 -28.181000  -3.968100   7.359520 -35.476200   0.093121  -0.319448 -23.627000   0.248599  -0.133950 -32.573900  -4.522090   7.034680 -49.278800  -0.002589  -0.024599 -32.819700   0.011544  -0.014887   3.137350  -1.160360   7.777580  46.157900 -14.418500  53.773900 -10.162800 -12.344900  78.601200  23.269900 -32.195700   8.321280 -48.877200  22.420900  37.602100 -21.063500   0.000202   0.000151 -15.095600   0.000361   0.000067  88.995600   5.006120   0.095719  93.796700   0.000630   0.001897  70.347600   0.004117  -0.002336  89.000000   0.003434  -0.003446 110.000000  -0.001176  -0.002801  79.994300  -0.000338   0.001151  88.996200  -4.997810  -0.087486 110.000000  -0.004938  -0.004181  80.000000  -0.004251   0.003650  88.984600  -9.997750  -0.176303 110.000000  -0.001766  -0.002141  80.000000  -0.002114   0.002087   1.528720  16.199400   0.863511  -0.149801   0.980878  10.380000  -2.601140  -4.059300  -3.357860   0.000000   0.000000  -0.000000  -0.317683  15.217500  -5.053000  -0.064113   3.791510 -12.103000   1.641850  -5.177340  -2.435770  -0.000000   0.000000  -0.000000
  0.616815  89.407700  -0.478085  -1.121610 -12.907200  -1.128870   0.147981   9.964240   0.671883   0.179863  19.929600   1.348250   0.666597  -3.030120   0.035364   1.104340  -6.140800  10.828400  -7.022860  -0.879494   5.942610 -71.651300  10.317800  -5.318590   1.062810   6.534140 -22.945100   7.542740  -7.794790  -1.154220  41.470700  33.679100 -54.486700 -30.253500   0.001400   0.000857 -10.126900   0.000000   0.001198 -34.378100  -1.170940   1.711120 -28.141900   0.034508   0.041208 -19.699200   0.014588   0.034926 -30.217300  -3.735760   6.384610 -45.636100   0.352342  -0.386727 -30.395400   0.391737   0.025231 -28.192500  -4.001050   7.416790 -35.626000   0.078785  -0.254120 -23.726700   0.213303  -0.116314 -32.703600  -4.572760   7.080220 -49.479100  -0.006771  -0.026350 -32.953000   0.009429  -0.017401   3.150250  -1.024970   7.828330  46.502900 -14.296400  54.014800 -10.291200 -12.666600  78.855700  23.314000 -31.896600   8.174650 -49.076400  22.839200  38.120000 -20.290500   0.000223   0.000155 -14.975600   0.000320   0.000027  88.995600   5.006130   0.095757  93.663900   0.000654   0.001968  70.247900   0.004148  -0.002388  89.000000   0.003408  -0.003346 109.953000  -0.001149  -0.002785  79.994300  -0.000277   0.001122  88.996200  -4.997810  -0.087483 110.000000  -0.004953  -0.004229  80.000000  -0.004227   0.003583  88.984600  -9.997780  -0.176305 110.000000  -0.001662  -0.002135  80.000000  -0.001988   0.002096   1.578080  16.195600   0.878605  -0.183390   0.837489  10.408800  -2.607760  -4.003210  -3.364600  -0.000000   0.000000   0.000000  -0.327422  15.135100  -5.072760  -0.016000   3.702890 -12.088600   1.617400  -5.094100  -2.372220   0.000000   0.000000  -0.000000
  0.622895  89.401300  -0.454138  -1.149300 -12.794600  -1.187760   0.169536   9.898100   0.646052   0.229004  19.797500   1.291490   0.573148  -2.993190   0.029979   0.948927  -6.067700  10.917500  -7.051780  -0.887382   5.934750 -71.713500  10.167300  -5.087210   1.059090   6.493070 -23.188200   7.453320  -8.087250  -1.152070  41.530600  33.817000 -54.690800 -30.261600   0.001398   0.000851 -10.131200   0.000000   0.001189 -34.433100  -1.198350   1.747300 -28.187600   0.034807   0.042267 -19.731200   0.014070   0.035651 -30.254600  -3.735610   6.374020 -45.692600   0.286653  -0.292364 -30.432400   0.305194   0.025862 -28.195300  -4.031010   7.470400 -35.701300   0.051917  -0.144109 -23.776900   0.144170  -0.079623 -32.766900  -4.615110   7.125640 -49.581600  -0.007536  -0.026600 -33.021300   0.004868  -0.017760   3.155170  -0.888029   7.876040  46.542000 -14.045500  54.083000 -10.453900 -13.116500  78.980900  23.208400 -31.769900   7.910160 -49.293300  23.274600  38.670100 -19.433600   0.000231   0.000161 -14.722100   0.000277   0.000000  88.995600   5.006140   0.095790  93.424500   0.000728   0.002042  70.068300   0.004180  -0.002435  89.000000   0.003384  -0.003249 109.905000  -0.001070  -0.002763  79.994300  -0.000205   0.001094  88.996200  -4.997810  -0.087479 110.000000  -0.004966  -0.004277  80.000000  -0.004202   0.003517  88.984600  -9.997800  -0.176307 110.000000  -0.001562  -0.002129  80.000000  -0.001862   0.002102   1.624840  16.170700   0.887668  -0.218880   0.699303  10.459900  -2.612240  -3.945080  -3.371330   0.000000   0.000000   0.000000  -0.345814  15.008100  -5.090420   0.031170   3.640470 -12.074400   1.593740  -5.010200  -2.303000   0.000000   0.000000  -0.000000
  0.618560  89.397900  -0.435458  -1.178000 -12.675900  -1.254510   0.175048   9.825370   0.638650   0.241676  19.652100   1.275590   0.512527  -2.943860   0.026720   0.852892  -5.968620  10.910400  -7.071590  -0.878906   5.922340 -71.665600  10.250900  -4.937890   1.016880   6.330350 -23.334700   7.332800  -8.120960  -1.156080  41.660500  34.066100 -54.926400 -30.255600   0.001399   0.000883 -10.128000   0.000000   0.001194 -34.414200  -1.216250   1.774250 -28.172600   0.025653   0.035318 -19.720800   0.008105   0.029116 -30.229400  -3.735330   6.381150 -45.656200   0.096215  -0.088796 -30.407200   0.097315   0.018662 -28.188500  -4.048760   7.503160 -35.663200   0.016127  -0.030706 -23.751600   0.044121  -0.021039 -32.746700  -4.633300   7.156210 -49.556000  -0.002151  -0.003316 -33.004300  -0.002800  -0.003552   3.152200  -0.741878   7.920630  46.151600 -13.571500  53.918000 -10.579800 -13.834600  78.978300  22.983700 -31.811600   7.590640 -49.482900  23.615600  39.126900 -18.780700   0.000218   0.000204 -14.423400   0.000230   0.000000  88.995600   5.006140   0.095817  92.933300   0.004461   0.002081  69.699900   0.004195  -0.002476  89.000000   0.003355  -0.003165 110.481000   0.002113  -0.002751  79.994300  -0.000158   0.001081  88.996200  -4.997800  -0.087479 110.000000  -0.004987  -0.004324  80.000000  -0.004174   0.003443  88.984600  -9.997840  -0.176307 110.000000  -0.001458  -0.002118  80.000000  -0.001745   0.002113   1.667740  16.116300   0.891491  -0.250009   0.588354  10.511300  -2.614220  -3.899450  -3.368840  -0.000000   0.000000  -0.000000  -0.358196  14.925000  -5.096270   0.071249   3.532760 -12.065600   1.576330  -4.927370  -2.232730  -0.000000   0.000000  -0.000000
  0.609611  89.396500  -0.421528  -1.206270 -12.549400  -1.322090   0.176652   9.742510   0.637454   0.246896  19.486400   1.272180   0.487339  -2.889320   0.024560   0.806276  -5.857910  10.872400  -7.087510  -0.861274   5.904140 -71.558900  10.407000  -4.848760   0.961041   6.145390 -23.385500   7.226790  -8.125760  -1.160010  41.809500  34.268500 -55.107700 -30.249600   0.001400   0.000916 -10.124800   0.000000   0.001202 -34.374800  -1.228890   1.795700 -28.140500   0.013357   0.025647 -19.698400   0.002584   0.020087 -30.177700  -3.735010   6.395680 -45.579300  -0.043000   0.055183 -30.355900  -0.051680   0.004019 -28.180100  -4.055550   7.520120 -35.578300  -0.007131   0.038014 -23.695100  -0.022091   0.018491 -32.698600  -4.637040   7.177700 -49.484200   0.003234   0.019969 -32.956500  -0.008022   0.010656   3.160960  -0.599802   7.955660  45.551900 -12.958500  53.688000 -10.827200 -14.549300  78.851600  22.462700 -31.926500   7.222210 -49.728600  24.082100  39.730900 -18.044800   0.000189   0.000238 -14.027300   0.000178   0.000000  88.995600   5.006140   0.095838  92.027700   0.010052   0.002201  69.020800   0.004237  -0.002507  89.000000   0.003325  -0.003081 111.057000   0.008097  -0.002716  79.994300   0.000000   0.001046  88.996200  -4.997800  -0.087479 110.000000  -0.005007  -0.004368  80.000000  -0.004145   0.003367  88.984600  -9.997870  -0.176308 110.000000  -0.001352  -0.002106  80.000000  -0.001632   0.002127   1.703330  16.030100   0.894333  -0.277232   0.526929  10.557500  -2.613280  -3.865690  -3.356370  -0.000000   0.000000   0.000000  -0.369285  14.858200  -5.102050   0.109542   3.407710 -12.052500   1.561200  -4.851540  -2.166510   0.000000   0.000000   0.000000
